<svg width="160" height="33" viewBox="0 0 160 33" fill="none" xmlns="http://www.w3.org/2000/svg">
<rect x="0.434814" y="0.659058" width="3.20556" height="32.1129" fill="#22272E"/>
<rect x="91.7932" y="0.658936" width="3.20556" height="32.1129" fill="#22272E"/>
<rect x="110.225" y="0.658936" width="3.20556" height="32.1129" fill="#22272E"/>
<rect x="5.24316" y="0.658936" width="1.60278" height="32.1129" fill="#22272E"/>
<rect x="96.6016" y="0.658936" width="1.60278" height="32.1129" fill="#22272E"/>
<rect x="115.033" y="0.658936" width="1.60278" height="32.1129" fill="#22272E"/>
<rect x="61.3403" y="0.658936" width="1.60278" height="32.1129" fill="#22272E"/>
<rect x="8.44873" y="0.658936" width="1.60278" height="32.1129" fill="#22272E"/>
<rect x="99.8071" y="0.658936" width="1.60278" height="32.1129" fill="#22272E"/>
<rect x="118.239" y="0.658936" width="1.60278" height="32.1129" fill="#22272E"/>
<rect x="64.5459" y="0.658936" width="1.60278" height="32.1129" fill="#22272E"/>
<rect x="11.6541" y="0.658936" width="5.60973" height="32.1129" fill="#22272E"/>
<rect x="103.013" y="0.658936" width="5.60973" height="32.1129" fill="#22272E"/>
<rect x="121.445" y="0.658936" width="5.60973" height="32.1129" fill="#22272E"/>
<rect x="67.7515" y="0.658936" width="5.60973" height="32.1129" fill="#22272E"/>
<rect x="18.8667" y="0.658936" width="0.80139" height="32.1129" fill="#22272E"/>
<rect x="128.657" y="0.658936" width="0.80139" height="32.1129" fill="#22272E"/>
<rect x="144.685" y="0.658936" width="0.80139" height="32.1129" fill="#22272E"/>
<rect x="45.3125" y="0.658936" width="0.80139" height="32.1129" fill="#22272E"/>
<rect x="21.271" y="0.658936" width="0.80139" height="32.1129" fill="#22272E"/>
<rect x="131.062" y="0.658936" width="0.80139" height="32.1129" fill="#22272E"/>
<rect x="147.089" y="0.658936" width="0.80139" height="32.1129" fill="#22272E"/>
<rect x="47.7168" y="0.658936" width="0.80139" height="32.1129" fill="#22272E"/>
<rect x="23.6753" y="0.658936" width="0.80139" height="32.1129" fill="#22272E"/>
<rect x="133.465" y="0.658936" width="0.80139" height="32.1129" fill="#22272E"/>
<rect x="149.493" y="0.658936" width="0.80139" height="32.1129" fill="#22272E"/>
<rect x="50.1211" y="0.658936" width="0.80139" height="32.1129" fill="#22272E"/>
<rect x="26.0791" y="0.658936" width="0.80139" height="32.1129" fill="#22272E"/>
<rect x="135.87" y="0.658936" width="0.80139" height="32.1129" fill="#22272E"/>
<rect x="151.898" y="0.658936" width="0.80139" height="32.1129" fill="#22272E"/>
<rect x="52.5251" y="0.658936" width="0.80139" height="32.1129" fill="#22272E"/>
<rect x="28.4834" y="0.658936" width="1.60278" height="32.1129" fill="#22272E"/>
<rect x="138.274" y="0.658936" width="1.60278" height="32.1129" fill="#22272E"/>
<rect x="154.302" y="0.658936" width="1.60278" height="32.1129" fill="#22272E"/>
<rect x="74.9641" y="0.658936" width="1.60278" height="32.1129" fill="#22272E"/>
<rect x="54.9292" y="0.658936" width="1.60278" height="32.1129" fill="#22272E"/>
<rect x="31.689" y="0.658936" width="1.60278" height="32.1129" fill="#22272E"/>
<rect x="141.479" y="0.658936" width="1.60278" height="32.1129" fill="#22272E"/>
<rect x="157.507" y="0.658936" width="1.60278" height="32.1129" fill="#22272E"/>
<rect x="78.1697" y="0.658936" width="1.60278" height="32.1129" fill="#22272E"/>
<rect x="58.1348" y="0.658936" width="1.60278" height="32.1129" fill="#22272E"/>
<rect x="34.8945" y="0.658936" width="4.00695" height="32.1129" fill="#22272E"/>
<rect x="81.3752" y="0.658936" width="4.00695" height="32.1129" fill="#22272E"/>
<rect x="40.5042" y="0.658936" width="3.20556" height="32.1129" fill="#22272E"/>
<rect x="86.9849" y="0.658936" width="3.20556" height="32.1129" fill="#22272E"/>
</svg>
