<svg width="199" height="155" viewBox="0 0 199 155" fill="none" xmlns="http://www.w3.org/2000/svg">
<mask id="path-1-inside-1_10_153" fill="white">
<path fill-rule="evenodd" clip-rule="evenodd" d="M198.947 143.103C198.947 149.363 193.872 154.437 187.613 154.437L11.334 154.437C5.0744 154.437 3.0074e-05 149.363 2.95267e-05 143.103L1.86911e-05 19.1578C7.60031 17.9248 13.4266 10.8683 13.4266 2.34778C13.4266 1.8608 13.4076 1.3786 13.3703 0.902009L188.371 0.901994C188.215 1.85851 188.134 2.84248 188.134 3.84682C188.134 11.3601 192.665 17.7351 198.947 19.9827L198.947 143.103Z"/>
</mask>
<path fill-rule="evenodd" clip-rule="evenodd" d="M198.947 143.103C198.947 149.363 193.872 154.437 187.613 154.437L11.334 154.437C5.0744 154.437 3.0074e-05 149.363 2.95267e-05 143.103L1.86911e-05 19.1578C7.60031 17.9248 13.4266 10.8683 13.4266 2.34778C13.4266 1.8608 13.4076 1.3786 13.3703 0.902009L188.371 0.901994C188.215 1.85851 188.134 2.84248 188.134 3.84682C188.134 11.3601 192.665 17.7351 198.947 19.9827L198.947 143.103Z" fill="#FFF7EA"/>
<path d="M187.613 154.437L187.613 155.518L187.613 154.437ZM11.334 154.437L11.334 153.356L11.334 154.437ZM1.86911e-05 19.1578L-0.173123 18.0905L-1.08122 18.2378L-1.08122 19.1578L1.86911e-05 19.1578ZM13.3703 0.902009L13.3703 -0.179229L12.2011 -0.179229L12.2923 0.98639L13.3703 0.902009ZM188.371 0.901994L189.438 1.07523L189.641 -0.179244L188.371 -0.179244L188.371 0.901994ZM198.947 19.9827L200.028 19.9827L200.028 19.2211L199.311 18.9646L198.947 19.9827ZM187.613 155.518C194.47 155.518 200.028 149.96 200.028 143.103L197.866 143.103C197.866 148.765 193.275 153.356 187.613 153.356L187.613 155.518ZM11.334 155.518L187.613 155.518L187.613 153.356L11.334 153.356L11.334 155.518ZM-1.08121 143.103C-1.08121 149.96 4.47725 155.518 11.334 155.518L11.334 153.356C5.67155 153.356 1.08127 148.765 1.08127 143.103L-1.08121 143.103ZM-1.08122 19.1578L-1.08121 143.103L1.08127 143.103L1.08126 19.1578L-1.08122 19.1578ZM12.3454 2.34778C12.3454 10.3883 6.85555 16.9503 -0.173123 18.0905L0.17316 20.2251C8.34508 18.8994 14.5078 11.3483 14.5078 2.34778L12.3454 2.34778ZM12.2923 0.98639C12.3274 1.43492 12.3454 1.88896 12.3454 2.34778L14.5078 2.34778C14.5078 1.83263 14.4877 1.32228 14.4482 0.817628L12.2923 0.98639ZM188.371 -0.179244L13.3703 -0.179229L13.3703 1.98325L188.371 1.98323L188.371 -0.179244ZM189.216 3.84682C189.216 2.90065 189.292 1.97459 189.438 1.07523L187.303 0.728761C187.139 1.74242 187.053 2.78432 187.053 3.84682L189.216 3.84682ZM199.311 18.9646C193.484 16.8799 189.216 10.9308 189.216 3.84682L187.053 3.84682C187.053 11.7895 191.845 18.5903 198.583 21.0007L199.311 18.9646ZM200.028 143.103L200.028 19.9827L197.866 19.9827L197.866 143.103L200.028 143.103Z" fill="black" mask="url(#path-1-inside-1_10_153)"/>
</svg>
