<svg width="200" height="265" viewBox="0 0 200 265" fill="none" xmlns="http://www.w3.org/2000/svg">
<mask id="path-1-inside-1_7_83" fill="white">
<path fill-rule="evenodd" clip-rule="evenodd" d="M0.711426 11.334C0.711426 5.07439 5.78581 0 12.0454 0H188.666C194.926 0 200 5.07438 200 11.3339V249.37C193.68 251.604 189.074 257.469 188.692 264.459H13.8305C13.0303 257.22 7.68497 251.351 0.711426 249.768V11.334Z"/>
</mask>
<path fill-rule="evenodd" clip-rule="evenodd" d="M0.711426 11.334C0.711426 5.07439 5.78581 0 12.0454 0H188.666C194.926 0 200 5.07438 200 11.3339V249.37C193.68 251.604 189.074 257.469 188.692 264.459H13.8305C13.0303 257.22 7.68497 251.351 0.711426 249.768V11.334Z" fill="#FFF7EA"/>
<path d="M200 249.37L200.36 250.389L201.081 250.134V249.37H200ZM188.692 264.459V265.54H189.715L189.771 264.518L188.692 264.459ZM13.8305 264.459L12.7558 264.578L12.8622 265.54H13.8305V264.459ZM0.711426 249.768H-0.369807V250.631L0.472159 250.823L0.711426 249.768ZM12.0454 -1.08123C5.18866 -1.08123 -0.369807 4.47724 -0.369807 11.334H1.79266C1.79266 5.67154 6.38296 1.08123 12.0454 1.08123V-1.08123ZM188.666 -1.08123H12.0454V1.08123H188.666V-1.08123ZM201.081 11.3339C201.081 4.47723 195.523 -1.08123 188.666 -1.08123V1.08123C194.328 1.08123 198.919 5.67153 198.919 11.3339H201.081ZM201.081 249.37V11.3339H198.919V249.37H201.081ZM189.771 264.518C190.13 257.975 194.441 252.481 200.36 250.389L199.64 248.35C192.918 250.726 188.019 256.962 187.612 264.4L189.771 264.518ZM13.8305 265.54H188.692V263.378H13.8305V265.54ZM0.472159 250.823C7.00127 252.304 12.0068 257.802 12.7558 264.578L14.9052 264.34C14.0538 256.638 8.36867 250.397 0.950693 248.714L0.472159 250.823ZM-0.369807 11.334V249.768H1.79266V11.334H-0.369807Z" fill="black" mask="url(#path-1-inside-1_7_83)"/>
</svg>
